<svg width="24" height="24" viewBox="0 0 24 24" fill="none" xmlns="http://www.w3.org/2000/svg">
<mask id="mask0_124_25006" style="mask-type:luminance" maskUnits="userSpaceOnUse" x="0" y="0" width="24" height="24">
<path d="M0 0H24V24H0V0Z" fill="white"/>
</mask>
<g mask="url(#mask0_124_25006)">
<path d="M2.23779 9.03475C2.23779 7.92087 3.47543 5.81689 5.08436 5.19807C6.69328 4.57925 9.16856 4.57925 12.5102 4.57925C16.0993 4.57925 19.6885 5.19807 19.6885 5.19807L16.8419 2.35151L18.0795 0L24.7628 6.807L17.9558 13.614L16.7181 11.2625L19.5647 8.41593C19.5647 8.41593 15.9756 7.79711 12.2626 7.79711C9.04479 7.79711 6.56952 7.79711 4.96059 8.41593C3.35167 9.03475 2.23779 12.9952 2.23779 12.9952V9.03475Z" fill="#5856D6"/>
<path d="M22.5347 15.966C22.5347 17.0798 21.2971 19.1838 19.6882 19.8026C18.0793 20.4215 15.604 20.4215 12.2624 20.4215C8.67322 20.4215 5.08407 19.8026 5.08407 19.8026L7.93064 22.6492L6.693 25.0007L0.00976562 18.1937L6.81677 11.3867L8.0544 13.7382L5.20784 16.5848C5.20784 16.5848 8.79698 17.2036 12.5099 17.2036C15.7277 17.2036 18.203 17.2036 19.8119 16.5848C21.4209 15.966 22.5347 12.0055 22.5347 12.0055V15.966Z" fill="#5856D6"/>
</g>
</svg>
